{
  "accessors": [
    {
      "bufferView": 2,
      "componentType": 5126,
      "count": 2911,
      "max": [
        22.058452606201172,
        27.494810104370117,
        3.213543653488159
      ],
      "min": [
        -5.830542087554932,
        -16.367935180664063,
        -3.9190988540649414
      ],
      "type": "VEC3"
    },
    {
      "bufferView": 2,
      "byteOffset": 34932,
      "componentType": 5126,
      "count": 2911,
      "max": [
        0.9999715685844421,
        1.0,
        1.0
      ],
      "min": [
        -0.9999369382858276,
        -1.0,
        -1.0
      ],
      "type": "VEC3"
    },
    {
      "bufferView": 1,
      "componentType": 5126,
      "count": 2911,
      "max": [
        1.000207543373108,
        0.5000000596046448
      ],
      "min": [
        -0.00020761243649758399,
        0.0
      ],
      "type": "VEC2"
    },
    {
      "bufferView": 0,
      "componentType": 5125,
      "count": 15168,
      "type": "SCALAR"
    },
    {
      "bufferView": 2,
      "byteOffset": 69864,
      "componentType": 5126,
      "count": 1780,
      "max": [
        14.513033866882324,
        27.21176528930664,
        2.913022518157959
      ],
      "min": [
        -7.1645588874816895,
        9.276432991027832,
        -3.7340095043182373
      ],
      "type": "VEC3"
    },
    {
      "bufferView": 2,
      "byteOffset": 91224,
      "componentType": 5126,
      "count": 1780,
      "max": [
        0.9999886751174927,
        0.9954455494880676,
        1.0
      ],
      "min": [
        -0.999961256980896,
        -0.9979173541069031,
        -1.0
      ],
      "type": "VEC3"
    },
    {
      "bufferView": 1,
      "byteOffset": 23288,
      "componentType": 5126,
      "count": 1780,
      "max": [
        1.0,
        1.0
      ],
      "min": [
        0.0,
        0.0
      ],
      "type": "VEC2"
    },
    {
      "bufferView": 0,
      "byteOffset": 60672,
      "componentType": 5125,
      "count": 8040,
      "type": "SCALAR"
    }
  ],
  "asset": {
    "extras": {
      "author": "Vera4Art (https://sketchfab.com/Elvera.Viljoen)",
      "license": "CC-BY-4.0 (http://creativecommons.org/licenses/by/4.0/)",
      "source": "https://sketchfab.com/3d-models/doctors-stethoscope-3bef1be839834f4f9ad7ff8731d90602",
      "title": "Doctor's stethoscope"
    },
    "generator": "Sketchfab-15.9.0",
    "version": "2.0"
  },
  "bufferViews": [
    {
      "buffer": 0,
      "byteLength": 92832,
      "name": "floatBufferViews",
      "target": 34963
    },
    {
      "buffer": 0,
      "byteLength": 37528,
      "byteOffset": 92832,
      "byteStride": 8,
      "name": "floatBufferViews",
      "target": 34962
    },
    {
      "buffer": 0,
      "byteLength": 112584,
      "byteOffset": 130360,
      "byteStride": 12,
      "name": "floatBufferViews",
      "target": 34962
    }
  ],
  "buffers": [
    {
      "byteLength": 242944,
      "uri": "scene.bin"
    }
  ],
  "materials": [
    {
      "doubleSided": true,
      "name": "Material",
      "pbrMetallicRoughness": {
        "baseColorFactor": [
          0.0025794,
          0.0025794,
          0.0025794,
          1.0
        ],
        "metallicFactor": 0.0,
        "roughnessFactor": 0.5
      }
    },
    {
      "doubleSided": true,
      "name": "Material.001",
      "pbrMetallicRoughness": {
        "baseColorFactor": [
          0.447979,
          0.447979,
          0.447979,
          1.0
        ],
        "roughnessFactor": 0.5
      }
    }
  ],
  "meshes": [
    {
      "name": "Object_0",
      "primitives": [
        {
          "attributes": {
            "NORMAL": 1,
            "POSITION": 0,
            "TEXCOORD_0": 2
          },
          "indices": 3,
          "material": 0,
          "mode": 4
        }
      ]
    },
    {
      "name": "Object_1",
      "primitives": [
        {
          "attributes": {
            "NORMAL": 5,
            "POSITION": 4,
            "TEXCOORD_0": 6
          },
          "indices": 7,
          "material": 1,
          "mode": 4
        }
      ]
    }
  ],
  "nodes": [
    {
      "children": [
        1
      ],
      "matrix": [
        1.0,
        0.0,
        0.0,
        0.0,
        0.0,
        2.220446049250313e-16,
        -1.0,
        0.0,
        0.0,
        1.0,
        2.220446049250313e-16,
        0.0,
        0.0,
        0.0,
        0.0,
        1.0
      ],
      "name": "Sketchfab_model"
    },
    {
      "children": [
        2
      ],
      "name": "root"
    },
    {
      "children": [
        3
      ],
      "matrix": [
        1.0,
        0.0,
        0.0,
        0.0,
        0.0,
        2.220446049250313e-16,
        1.0,
        0.0,
        0.0,
        -1.0,
        2.220446049250313e-16,
        0.0,
        0.0,
        0.0,
        0.0,
        1.0
      ],
      "name": "GLTF_SceneRootNode"
    },
    {
      "children": [
        4,
        5
      ],
      "matrix": [
        0.1152002364397049,
        0.0,
        0.0,
        0.0,
        0.0,
        0.1152002364397049,
        0.0,
        0.0,
        0.0,
        0.0,
        0.1152002364397049,
        0.0,
        -0.878809928894043,
        -0.6269216537475586,
        0.0,
        1.0
      ],
      "name": "Wye Joint_1"
    },
    {
      "mesh": 0,
      "name": "Object_4"
    },
    {
      "mesh": 1,
      "name": "Object_5"
    }
  ],
  "scene": 0,
  "scenes": [
    {
      "name": "Sketchfab_Scene",
      "nodes": [
        0
      ]
    }
  ]
}
